<mxfile host="app.diagrams.net" agent="Mozilla/5.0 (X11; Ubuntu; Linux x86_64; rv:130.0) Gecko/20100101 Firefox/130.0" version="26.0.7">
  <diagram name="Page-1" id="ETlqfPXH61PMwjd8vDwh">
    <mxGraphModel dx="1606" dy="454" grid="1" gridSize="10" guides="1" tooltips="1" connect="1" arrows="1" fold="1" page="1" pageScale="1" pageWidth="827" pageHeight="1169" math="0" shadow="0">
      <root>
        <mxCell id="0" />
        <mxCell id="1" parent="0" />
        <mxCell id="N1eh8rhruJ90CBT_FyyH-13" value="" style="group" vertex="1" connectable="0" parent="1">
          <mxGeometry x="110" y="340" width="380" height="320" as="geometry" />
        </mxCell>
        <mxCell id="i6592H5dIFc6CG0MSyQc-1" value="" style="rounded=0;whiteSpace=wrap;html=1;fillColor=#b1ddf0;strokeColor=#10739e;" parent="N1eh8rhruJ90CBT_FyyH-13" vertex="1">
          <mxGeometry width="380" height="320" as="geometry" />
        </mxCell>
        <mxCell id="i6592H5dIFc6CG0MSyQc-2" value="Central Unit" style="text;html=1;align=center;verticalAlign=middle;whiteSpace=wrap;rounded=0;fillColor=#f5f5f5;fontColor=#333333;strokeColor=#666666;" parent="N1eh8rhruJ90CBT_FyyH-13" vertex="1">
          <mxGeometry width="71" height="30" as="geometry" />
        </mxCell>
        <mxCell id="X9g1w7YATRWXdbqCT6Oc-80" value="" style="shape=hexagon;perimeter=hexagonPerimeter2;whiteSpace=wrap;html=1;fixedSize=1;fillColor=#f5f5f5;strokeColor=#666666;fontColor=#333333;" parent="1" vertex="1">
          <mxGeometry x="740" y="305" width="570" height="430" as="geometry" />
        </mxCell>
        <mxCell id="X9g1w7YATRWXdbqCT6Oc-39" value="" style="shape=hexagon;perimeter=hexagonPerimeter2;whiteSpace=wrap;html=1;fixedSize=1;fillColor=#f5f5f5;strokeColor=#666666;fontColor=#333333;" parent="1" vertex="1">
          <mxGeometry x="110" y="739" width="570" height="430" as="geometry" />
        </mxCell>
        <mxCell id="i6592H5dIFc6CG0MSyQc-76" value="" style="shape=hexagon;perimeter=hexagonPerimeter2;whiteSpace=wrap;html=1;fixedSize=1;fillColor=#f5f5f5;strokeColor=#666666;fontColor=#333333;" parent="1" vertex="1">
          <mxGeometry x="-730" y="740" width="720" height="430" as="geometry" />
        </mxCell>
        <mxCell id="i6592H5dIFc6CG0MSyQc-5" value="Broker MQTT" style="rounded=1;whiteSpace=wrap;html=1;" parent="1" vertex="1">
          <mxGeometry x="190" y="555" width="120" height="60" as="geometry" />
        </mxCell>
        <mxCell id="i6592H5dIFc6CG0MSyQc-6" value="Home Assistant" style="rounded=1;whiteSpace=wrap;html=1;" parent="1" vertex="1">
          <mxGeometry x="330" y="380" width="120" height="60" as="geometry" />
        </mxCell>
        <mxCell id="i6592H5dIFc6CG0MSyQc-13" value="" style="ellipse;whiteSpace=wrap;html=1;fillColor=#d5e8d4;strokeColor=#82b366;" parent="1" vertex="1">
          <mxGeometry x="-680" y="780" width="340" height="290" as="geometry" />
        </mxCell>
        <mxCell id="i6592H5dIFc6CG0MSyQc-16" value="" style="rounded=0;whiteSpace=wrap;html=1;" parent="1" vertex="1">
          <mxGeometry x="-590" y="375" width="80" height="40" as="geometry" />
        </mxCell>
        <mxCell id="i6592H5dIFc6CG0MSyQc-17" value="Elements physiques" style="text;html=1;align=center;verticalAlign=middle;whiteSpace=wrap;rounded=0;" parent="1" vertex="1">
          <mxGeometry x="-500" y="380" width="110" height="30" as="geometry" />
        </mxCell>
        <mxCell id="i6592H5dIFc6CG0MSyQc-18" value="" style="rounded=1;whiteSpace=wrap;html=1;" parent="1" vertex="1">
          <mxGeometry x="-590" y="425" width="80" height="40" as="geometry" />
        </mxCell>
        <mxCell id="i6592H5dIFc6CG0MSyQc-19" value="Services" style="text;html=1;align=center;verticalAlign=middle;whiteSpace=wrap;rounded=0;" parent="1" vertex="1">
          <mxGeometry x="-500" y="430" width="110" height="30" as="geometry" />
        </mxCell>
        <mxCell id="i6592H5dIFc6CG0MSyQc-21" value="Bouton" style="rounded=0;whiteSpace=wrap;html=1;" parent="1" vertex="1">
          <mxGeometry x="-610" y="840" width="70" height="30" as="geometry" />
        </mxCell>
        <mxCell id="i6592H5dIFc6CG0MSyQc-22" value="ESP32" style="rounded=0;whiteSpace=wrap;html=1;" parent="1" vertex="1">
          <mxGeometry x="-610" y="890" width="70" height="30" as="geometry" />
        </mxCell>
        <mxCell id="i6592H5dIFc6CG0MSyQc-23" value="" style="endArrow=classic;html=1;rounded=0;exitX=0.5;exitY=1;exitDx=0;exitDy=0;entryX=0.5;entryY=0;entryDx=0;entryDy=0;" parent="1" source="i6592H5dIFc6CG0MSyQc-21" target="i6592H5dIFc6CG0MSyQc-22" edge="1">
          <mxGeometry width="50" height="50" relative="1" as="geometry">
            <mxPoint x="-340" y="910" as="sourcePoint" />
            <mxPoint x="-290" y="860" as="targetPoint" />
          </mxGeometry>
        </mxCell>
        <mxCell id="i6592H5dIFc6CG0MSyQc-28" value="" style="group" parent="1" vertex="1" connectable="0">
          <mxGeometry x="-540" y="890" width="30" height="30" as="geometry" />
        </mxCell>
        <mxCell id="i6592H5dIFc6CG0MSyQc-29" value="" style="sketch=0;pointerEvents=1;shadow=0;dashed=0;html=1;strokeColor=none;fillColor=#434445;aspect=fixed;labelPosition=center;verticalLabelPosition=bottom;verticalAlign=top;align=center;outlineConnect=0;shape=mxgraph.vvd.wi_fi;" parent="i6592H5dIFc6CG0MSyQc-28" vertex="1">
          <mxGeometry x="5" width="20" height="20" as="geometry" />
        </mxCell>
        <mxCell id="i6592H5dIFc6CG0MSyQc-30" value="&lt;font style=&quot;font-size: 8px;&quot;&gt;MQTT&lt;/font&gt;" style="text;html=1;align=center;verticalAlign=middle;whiteSpace=wrap;rounded=0;" parent="i6592H5dIFc6CG0MSyQc-28" vertex="1">
          <mxGeometry y="20" width="30" height="10" as="geometry" />
        </mxCell>
        <mxCell id="i6592H5dIFc6CG0MSyQc-31" value="Bouton" style="rounded=0;whiteSpace=wrap;html=1;" parent="1" vertex="1">
          <mxGeometry x="-490" y="840" width="70" height="30" as="geometry" />
        </mxCell>
        <mxCell id="i6592H5dIFc6CG0MSyQc-32" value="ESP32" style="rounded=0;whiteSpace=wrap;html=1;" parent="1" vertex="1">
          <mxGeometry x="-490" y="890" width="70" height="30" as="geometry" />
        </mxCell>
        <mxCell id="i6592H5dIFc6CG0MSyQc-33" value="" style="endArrow=classic;html=1;rounded=0;exitX=0.5;exitY=1;exitDx=0;exitDy=0;entryX=0.5;entryY=0;entryDx=0;entryDy=0;" parent="1" source="i6592H5dIFc6CG0MSyQc-31" target="i6592H5dIFc6CG0MSyQc-32" edge="1">
          <mxGeometry width="50" height="50" relative="1" as="geometry">
            <mxPoint x="-220" y="910" as="sourcePoint" />
            <mxPoint x="-170" y="860" as="targetPoint" />
          </mxGeometry>
        </mxCell>
        <mxCell id="i6592H5dIFc6CG0MSyQc-34" value="" style="group" parent="1" vertex="1" connectable="0">
          <mxGeometry x="-420" y="890" width="30" height="30" as="geometry" />
        </mxCell>
        <mxCell id="i6592H5dIFc6CG0MSyQc-35" value="" style="sketch=0;pointerEvents=1;shadow=0;dashed=0;html=1;strokeColor=none;fillColor=#434445;aspect=fixed;labelPosition=center;verticalLabelPosition=bottom;verticalAlign=top;align=center;outlineConnect=0;shape=mxgraph.vvd.wi_fi;" parent="i6592H5dIFc6CG0MSyQc-34" vertex="1">
          <mxGeometry x="5" width="20" height="20" as="geometry" />
        </mxCell>
        <mxCell id="i6592H5dIFc6CG0MSyQc-36" value="&lt;font style=&quot;font-size: 8px;&quot;&gt;MQTT&lt;/font&gt;" style="text;html=1;align=center;verticalAlign=middle;whiteSpace=wrap;rounded=0;" parent="i6592H5dIFc6CG0MSyQc-34" vertex="1">
          <mxGeometry y="20" width="30" height="10" as="geometry" />
        </mxCell>
        <mxCell id="i6592H5dIFc6CG0MSyQc-37" value="Bouton" style="rounded=0;whiteSpace=wrap;html=1;" parent="1" vertex="1">
          <mxGeometry x="-610" y="950" width="70" height="30" as="geometry" />
        </mxCell>
        <mxCell id="i6592H5dIFc6CG0MSyQc-38" value="ESP32" style="rounded=0;whiteSpace=wrap;html=1;" parent="1" vertex="1">
          <mxGeometry x="-610" y="1000" width="70" height="30" as="geometry" />
        </mxCell>
        <mxCell id="i6592H5dIFc6CG0MSyQc-39" value="" style="endArrow=classic;html=1;rounded=0;exitX=0.5;exitY=1;exitDx=0;exitDy=0;entryX=0.5;entryY=0;entryDx=0;entryDy=0;" parent="1" source="i6592H5dIFc6CG0MSyQc-37" target="i6592H5dIFc6CG0MSyQc-38" edge="1">
          <mxGeometry width="50" height="50" relative="1" as="geometry">
            <mxPoint x="-340" y="1020" as="sourcePoint" />
            <mxPoint x="-290" y="970" as="targetPoint" />
          </mxGeometry>
        </mxCell>
        <mxCell id="i6592H5dIFc6CG0MSyQc-40" value="" style="group" parent="1" vertex="1" connectable="0">
          <mxGeometry x="-540" y="1000" width="30" height="30" as="geometry" />
        </mxCell>
        <mxCell id="i6592H5dIFc6CG0MSyQc-41" value="" style="sketch=0;pointerEvents=1;shadow=0;dashed=0;html=1;strokeColor=none;fillColor=#434445;aspect=fixed;labelPosition=center;verticalLabelPosition=bottom;verticalAlign=top;align=center;outlineConnect=0;shape=mxgraph.vvd.wi_fi;" parent="i6592H5dIFc6CG0MSyQc-40" vertex="1">
          <mxGeometry x="5" width="20" height="20" as="geometry" />
        </mxCell>
        <mxCell id="i6592H5dIFc6CG0MSyQc-42" value="&lt;font style=&quot;font-size: 8px;&quot;&gt;MQTT&lt;/font&gt;" style="text;html=1;align=center;verticalAlign=middle;whiteSpace=wrap;rounded=0;" parent="i6592H5dIFc6CG0MSyQc-40" vertex="1">
          <mxGeometry y="20" width="30" height="10" as="geometry" />
        </mxCell>
        <mxCell id="i6592H5dIFc6CG0MSyQc-43" value="Bouton" style="rounded=0;whiteSpace=wrap;html=1;" parent="1" vertex="1">
          <mxGeometry x="-490" y="950" width="70" height="30" as="geometry" />
        </mxCell>
        <mxCell id="i6592H5dIFc6CG0MSyQc-44" value="ESP32 LCD" style="rounded=0;whiteSpace=wrap;html=1;" parent="1" vertex="1">
          <mxGeometry x="-490" y="1000" width="70" height="30" as="geometry" />
        </mxCell>
        <mxCell id="i6592H5dIFc6CG0MSyQc-45" value="" style="endArrow=classic;html=1;rounded=0;exitX=0.5;exitY=1;exitDx=0;exitDy=0;entryX=0.5;entryY=0;entryDx=0;entryDy=0;" parent="1" source="i6592H5dIFc6CG0MSyQc-43" target="i6592H5dIFc6CG0MSyQc-44" edge="1">
          <mxGeometry width="50" height="50" relative="1" as="geometry">
            <mxPoint x="-220" y="1020" as="sourcePoint" />
            <mxPoint x="-170" y="970" as="targetPoint" />
          </mxGeometry>
        </mxCell>
        <mxCell id="i6592H5dIFc6CG0MSyQc-46" value="" style="group" parent="1" vertex="1" connectable="0">
          <mxGeometry x="-420" y="1000" width="30" height="30" as="geometry" />
        </mxCell>
        <mxCell id="i6592H5dIFc6CG0MSyQc-47" value="" style="sketch=0;pointerEvents=1;shadow=0;dashed=0;html=1;strokeColor=none;fillColor=#434445;aspect=fixed;labelPosition=center;verticalLabelPosition=bottom;verticalAlign=top;align=center;outlineConnect=0;shape=mxgraph.vvd.wi_fi;" parent="i6592H5dIFc6CG0MSyQc-46" vertex="1">
          <mxGeometry x="5" width="20" height="20" as="geometry" />
        </mxCell>
        <mxCell id="i6592H5dIFc6CG0MSyQc-48" value="&lt;font style=&quot;font-size: 8px;&quot;&gt;MQTT&lt;/font&gt;" style="text;html=1;align=center;verticalAlign=middle;whiteSpace=wrap;rounded=0;" parent="i6592H5dIFc6CG0MSyQc-46" vertex="1">
          <mxGeometry y="20" width="30" height="10" as="geometry" />
        </mxCell>
        <mxCell id="i6592H5dIFc6CG0MSyQc-24" value="" style="sketch=0;pointerEvents=1;shadow=0;dashed=0;html=1;strokeColor=none;fillColor=#434445;aspect=fixed;labelPosition=center;verticalLabelPosition=bottom;verticalAlign=top;align=center;outlineConnect=0;shape=mxgraph.vvd.wi_fi;container=0;rotation=-135;" parent="1" vertex="1">
          <mxGeometry x="150" y="570" width="30" height="30" as="geometry" />
        </mxCell>
        <mxCell id="i6592H5dIFc6CG0MSyQc-25" value="&lt;font style=&quot;font-size: 8px;&quot;&gt;MQTT&lt;/font&gt;" style="text;html=1;align=center;verticalAlign=middle;whiteSpace=wrap;rounded=0;container=0;" parent="1" vertex="1">
          <mxGeometry x="150" y="605" width="30" height="10" as="geometry" />
        </mxCell>
        <mxCell id="i6592H5dIFc6CG0MSyQc-50" value="Atelier Boutons" style="text;html=1;align=center;verticalAlign=middle;whiteSpace=wrap;rounded=0;" parent="1" vertex="1">
          <mxGeometry x="-555" y="790" width="90" height="30" as="geometry" />
        </mxCell>
        <mxCell id="i6592H5dIFc6CG0MSyQc-52" value="" style="ellipse;whiteSpace=wrap;html=1;" parent="1" vertex="1">
          <mxGeometry x="-590" y="475" width="80" height="40" as="geometry" />
        </mxCell>
        <mxCell id="i6592H5dIFc6CG0MSyQc-53" value="Ateliers" style="text;html=1;align=center;verticalAlign=middle;whiteSpace=wrap;rounded=0;" parent="1" vertex="1">
          <mxGeometry x="-475" y="482.5" width="60" height="25" as="geometry" />
        </mxCell>
        <mxCell id="i6592H5dIFc6CG0MSyQc-54" value="" style="ellipse;whiteSpace=wrap;html=1;fillColor=#dae8fc;strokeColor=#6c8ebf;" parent="1" vertex="1">
          <mxGeometry x="-290" y="780" width="170" height="160" as="geometry" />
        </mxCell>
        <mxCell id="i6592H5dIFc6CG0MSyQc-55" value="Atelier Simon" style="text;html=1;align=center;verticalAlign=middle;whiteSpace=wrap;rounded=0;" parent="1" vertex="1">
          <mxGeometry x="-250" y="800" width="90" height="30" as="geometry" />
        </mxCell>
        <mxCell id="i6592H5dIFc6CG0MSyQc-57" value="Matrice 4*4" style="rounded=0;whiteSpace=wrap;html=1;" parent="1" vertex="1">
          <mxGeometry x="-240" y="830" width="70" height="30" as="geometry" />
        </mxCell>
        <mxCell id="i6592H5dIFc6CG0MSyQc-58" value="ESP32 LCD" style="rounded=0;whiteSpace=wrap;html=1;" parent="1" vertex="1">
          <mxGeometry x="-240" y="880" width="70" height="30" as="geometry" />
        </mxCell>
        <mxCell id="i6592H5dIFc6CG0MSyQc-60" value="" style="endArrow=classic;startArrow=classic;html=1;rounded=0;entryX=0.5;entryY=1;entryDx=0;entryDy=0;exitX=0.5;exitY=0;exitDx=0;exitDy=0;" parent="1" source="i6592H5dIFc6CG0MSyQc-58" target="i6592H5dIFc6CG0MSyQc-57" edge="1">
          <mxGeometry width="50" height="50" relative="1" as="geometry">
            <mxPoint x="-165" y="980" as="sourcePoint" />
            <mxPoint x="-115" y="930" as="targetPoint" />
          </mxGeometry>
        </mxCell>
        <mxCell id="i6592H5dIFc6CG0MSyQc-61" value="" style="ellipse;whiteSpace=wrap;html=1;fillColor=#fff2cc;strokeColor=#d6b656;" parent="1" vertex="1">
          <mxGeometry x="-300" y="980" width="170" height="160" as="geometry" />
        </mxCell>
        <mxCell id="i6592H5dIFc6CG0MSyQc-62" value="" style="group" parent="1" vertex="1" connectable="0">
          <mxGeometry x="-170" y="880" width="30" height="30" as="geometry" />
        </mxCell>
        <mxCell id="i6592H5dIFc6CG0MSyQc-63" value="" style="sketch=0;pointerEvents=1;shadow=0;dashed=0;html=1;strokeColor=none;fillColor=#434445;aspect=fixed;labelPosition=center;verticalLabelPosition=bottom;verticalAlign=top;align=center;outlineConnect=0;shape=mxgraph.vvd.wi_fi;" parent="i6592H5dIFc6CG0MSyQc-62" vertex="1">
          <mxGeometry x="5" width="20" height="20" as="geometry" />
        </mxCell>
        <mxCell id="i6592H5dIFc6CG0MSyQc-64" value="&lt;font style=&quot;font-size: 8px;&quot;&gt;MQTT&lt;/font&gt;" style="text;html=1;align=center;verticalAlign=middle;whiteSpace=wrap;rounded=0;" parent="i6592H5dIFc6CG0MSyQc-62" vertex="1">
          <mxGeometry y="20" width="30" height="10" as="geometry" />
        </mxCell>
        <mxCell id="i6592H5dIFc6CG0MSyQc-65" value="Atelier ToF" style="text;html=1;align=center;verticalAlign=middle;whiteSpace=wrap;rounded=0;" parent="1" vertex="1">
          <mxGeometry x="-260" y="1000" width="90" height="30" as="geometry" />
        </mxCell>
        <mxCell id="i6592H5dIFc6CG0MSyQc-72" style="edgeStyle=orthogonalEdgeStyle;rounded=0;orthogonalLoop=1;jettySize=auto;html=1;exitX=1;exitY=0.5;exitDx=0;exitDy=0;entryX=0.5;entryY=1;entryDx=0;entryDy=0;startArrow=classic;startFill=1;" parent="1" source="i6592H5dIFc6CG0MSyQc-5" target="i6592H5dIFc6CG0MSyQc-6" edge="1">
          <mxGeometry relative="1" as="geometry" />
        </mxCell>
        <mxCell id="N1eh8rhruJ90CBT_FyyH-12" style="edgeStyle=orthogonalEdgeStyle;rounded=0;orthogonalLoop=1;jettySize=auto;html=1;exitX=0.5;exitY=0;exitDx=0;exitDy=0;entryX=0.5;entryY=1;entryDx=0;entryDy=0;startArrow=classic;startFill=1;" edge="1" parent="1" source="i6592H5dIFc6CG0MSyQc-69" target="X9g1w7YATRWXdbqCT6Oc-91">
          <mxGeometry relative="1" as="geometry" />
        </mxCell>
        <mxCell id="i6592H5dIFc6CG0MSyQc-69" value="Script MQTT_handler.py" style="rounded=1;whiteSpace=wrap;html=1;" parent="1" vertex="1">
          <mxGeometry x="190" y="470" width="120" height="60" as="geometry" />
        </mxCell>
        <mxCell id="i6592H5dIFc6CG0MSyQc-70" value="" style="endArrow=classic;startArrow=classic;html=1;rounded=0;exitX=0.5;exitY=0;exitDx=0;exitDy=0;entryX=0.5;entryY=1;entryDx=0;entryDy=0;" parent="1" source="i6592H5dIFc6CG0MSyQc-5" target="i6592H5dIFc6CG0MSyQc-69" edge="1">
          <mxGeometry width="50" height="50" relative="1" as="geometry">
            <mxPoint x="400" y="480" as="sourcePoint" />
            <mxPoint x="450" y="430" as="targetPoint" />
          </mxGeometry>
        </mxCell>
        <mxCell id="i6592H5dIFc6CG0MSyQc-75" style="edgeStyle=orthogonalEdgeStyle;rounded=0;orthogonalLoop=1;jettySize=auto;html=1;exitX=0.5;exitY=1;exitDx=0;exitDy=0;entryX=0.5;entryY=0;entryDx=0;entryDy=0;startArrow=none;startFill=0;" parent="1" source="i6592H5dIFc6CG0MSyQc-73" target="i6592H5dIFc6CG0MSyQc-74" edge="1">
          <mxGeometry relative="1" as="geometry" />
        </mxCell>
        <mxCell id="i6592H5dIFc6CG0MSyQc-73" value="ToF" style="rounded=0;whiteSpace=wrap;html=1;" parent="1" vertex="1">
          <mxGeometry x="-250" y="1030" width="70" height="30" as="geometry" />
        </mxCell>
        <mxCell id="i6592H5dIFc6CG0MSyQc-74" value="ESP32 LCD" style="rounded=0;whiteSpace=wrap;html=1;" parent="1" vertex="1">
          <mxGeometry x="-250" y="1080" width="70" height="30" as="geometry" />
        </mxCell>
        <mxCell id="i6592H5dIFc6CG0MSyQc-77" value="Lot capteur" style="text;html=1;align=center;verticalAlign=middle;whiteSpace=wrap;rounded=0;" parent="1" vertex="1">
          <mxGeometry x="-410" y="740" width="80" height="30" as="geometry" />
        </mxCell>
        <mxCell id="X9g1w7YATRWXdbqCT6Oc-1" value="" style="ellipse;whiteSpace=wrap;html=1;fillColor=#ffe6cc;strokeColor=#d79b00;movable=0;resizable=0;rotatable=0;deletable=0;editable=0;locked=1;connectable=0;" parent="1" vertex="1">
          <mxGeometry x="160" y="789" width="250" height="180" as="geometry" />
        </mxCell>
        <mxCell id="X9g1w7YATRWXdbqCT6Oc-4" value="Atelier Bi-camera" style="text;html=1;align=center;verticalAlign=middle;whiteSpace=wrap;rounded=0;" parent="1" vertex="1">
          <mxGeometry x="235" y="799" width="100" height="30" as="geometry" />
        </mxCell>
        <mxCell id="X9g1w7YATRWXdbqCT6Oc-12" value="" style="group" parent="1" vertex="1" connectable="0">
          <mxGeometry x="330" y="910" width="30" height="30" as="geometry" />
        </mxCell>
        <mxCell id="X9g1w7YATRWXdbqCT6Oc-13" value="" style="sketch=0;pointerEvents=1;shadow=0;dashed=0;html=1;strokeColor=none;fillColor=#434445;aspect=fixed;labelPosition=center;verticalLabelPosition=bottom;verticalAlign=top;align=center;outlineConnect=0;shape=mxgraph.vvd.wi_fi;" parent="X9g1w7YATRWXdbqCT6Oc-12" vertex="1">
          <mxGeometry x="5" width="20" height="20" as="geometry" />
        </mxCell>
        <mxCell id="X9g1w7YATRWXdbqCT6Oc-14" value="&lt;font style=&quot;font-size: 8px;&quot;&gt;MQTT&lt;/font&gt;" style="text;html=1;align=center;verticalAlign=middle;whiteSpace=wrap;rounded=0;" parent="X9g1w7YATRWXdbqCT6Oc-12" vertex="1">
          <mxGeometry y="20" width="30" height="10" as="geometry" />
        </mxCell>
        <mxCell id="X9g1w7YATRWXdbqCT6Oc-15" value="" style="ellipse;whiteSpace=wrap;html=1;fillColor=#e1d5e7;strokeColor=#9673a6;" parent="1" vertex="1">
          <mxGeometry x="200" y="994" width="170" height="160" as="geometry" />
        </mxCell>
        <mxCell id="X9g1w7YATRWXdbqCT6Oc-20" style="edgeStyle=orthogonalEdgeStyle;rounded=0;orthogonalLoop=1;jettySize=auto;html=1;entryX=0.5;entryY=0;entryDx=0;entryDy=0;" parent="1" source="X9g1w7YATRWXdbqCT6Oc-16" target="X9g1w7YATRWXdbqCT6Oc-18" edge="1">
          <mxGeometry relative="1" as="geometry" />
        </mxCell>
        <mxCell id="X9g1w7YATRWXdbqCT6Oc-16" value="Camera" style="rounded=0;whiteSpace=wrap;html=1;" parent="1" vertex="1">
          <mxGeometry x="250" y="1039" width="70" height="30" as="geometry" />
        </mxCell>
        <mxCell id="X9g1w7YATRWXdbqCT6Oc-17" value="Atelier Photo" style="text;html=1;align=center;verticalAlign=middle;whiteSpace=wrap;rounded=0;" parent="1" vertex="1">
          <mxGeometry x="240" y="1009" width="90" height="30" as="geometry" />
        </mxCell>
        <mxCell id="X9g1w7YATRWXdbqCT6Oc-18" value="PC + Ecran" style="rounded=0;whiteSpace=wrap;html=1;" parent="1" vertex="1">
          <mxGeometry x="250" y="1089" width="70" height="30" as="geometry" />
        </mxCell>
        <mxCell id="X9g1w7YATRWXdbqCT6Oc-21" value="" style="ellipse;whiteSpace=wrap;html=1;fillColor=#60a917;strokeColor=#2D7600;fontColor=#ffffff;" parent="1" vertex="1">
          <mxGeometry x="395" y="994" width="170" height="160" as="geometry" />
        </mxCell>
        <mxCell id="X9g1w7YATRWXdbqCT6Oc-22" style="edgeStyle=orthogonalEdgeStyle;rounded=0;orthogonalLoop=1;jettySize=auto;html=1;entryX=0.5;entryY=0;entryDx=0;entryDy=0;" parent="1" source="X9g1w7YATRWXdbqCT6Oc-23" target="X9g1w7YATRWXdbqCT6Oc-25" edge="1">
          <mxGeometry relative="1" as="geometry" />
        </mxCell>
        <mxCell id="X9g1w7YATRWXdbqCT6Oc-23" value="Camera" style="rounded=0;whiteSpace=wrap;html=1;" parent="1" vertex="1">
          <mxGeometry x="445" y="1039" width="70" height="30" as="geometry" />
        </mxCell>
        <mxCell id="X9g1w7YATRWXdbqCT6Oc-24" value="Atelier émotions" style="text;html=1;align=center;verticalAlign=middle;whiteSpace=wrap;rounded=0;" parent="1" vertex="1">
          <mxGeometry x="435" y="1009" width="90" height="30" as="geometry" />
        </mxCell>
        <mxCell id="X9g1w7YATRWXdbqCT6Oc-25" value="PC + Ecran" style="rounded=0;whiteSpace=wrap;html=1;" parent="1" vertex="1">
          <mxGeometry x="445" y="1089" width="70" height="30" as="geometry" />
        </mxCell>
        <mxCell id="X9g1w7YATRWXdbqCT6Oc-31" value="" style="ellipse;whiteSpace=wrap;html=1;fillColor=#6d8764;strokeColor=#3A5431;fontColor=#ffffff;" parent="1" vertex="1">
          <mxGeometry x="435" y="794" width="170" height="195" as="geometry" />
        </mxCell>
        <mxCell id="X9g1w7YATRWXdbqCT6Oc-32" style="edgeStyle=orthogonalEdgeStyle;rounded=0;orthogonalLoop=1;jettySize=auto;html=1;entryX=0.5;entryY=0;entryDx=0;entryDy=0;" parent="1" source="X9g1w7YATRWXdbqCT6Oc-33" target="X9g1w7YATRWXdbqCT6Oc-35" edge="1">
          <mxGeometry relative="1" as="geometry" />
        </mxCell>
        <mxCell id="X9g1w7YATRWXdbqCT6Oc-33" value="Camera" style="rounded=0;whiteSpace=wrap;html=1;" parent="1" vertex="1">
          <mxGeometry x="485" y="839" width="70" height="30" as="geometry" />
        </mxCell>
        <mxCell id="X9g1w7YATRWXdbqCT6Oc-34" value="Atelier Mégamind" style="text;html=1;align=center;verticalAlign=middle;whiteSpace=wrap;rounded=0;" parent="1" vertex="1">
          <mxGeometry x="475" y="809" width="100" height="30" as="geometry" />
        </mxCell>
        <mxCell id="X9g1w7YATRWXdbqCT6Oc-38" style="edgeStyle=orthogonalEdgeStyle;rounded=0;orthogonalLoop=1;jettySize=auto;html=1;" parent="1" source="X9g1w7YATRWXdbqCT6Oc-35" target="X9g1w7YATRWXdbqCT6Oc-37" edge="1">
          <mxGeometry relative="1" as="geometry" />
        </mxCell>
        <mxCell id="X9g1w7YATRWXdbqCT6Oc-35" value="ESP32 LCD" style="rounded=0;whiteSpace=wrap;html=1;" parent="1" vertex="1">
          <mxGeometry x="485" y="889" width="70" height="30" as="geometry" />
        </mxCell>
        <mxCell id="X9g1w7YATRWXdbqCT6Oc-37" value="LEDs" style="rounded=0;whiteSpace=wrap;html=1;" parent="1" vertex="1">
          <mxGeometry x="485" y="939" width="70" height="30" as="geometry" />
        </mxCell>
        <mxCell id="X9g1w7YATRWXdbqCT6Oc-40" value="Lot détéction" style="text;html=1;align=center;verticalAlign=middle;whiteSpace=wrap;rounded=0;" parent="1" vertex="1">
          <mxGeometry x="340" y="739" width="80" height="30" as="geometry" />
        </mxCell>
        <mxCell id="X9g1w7YATRWXdbqCT6Oc-44" value="" style="group" parent="1" vertex="1" connectable="0">
          <mxGeometry x="320" y="1090" width="30" height="30" as="geometry" />
        </mxCell>
        <mxCell id="X9g1w7YATRWXdbqCT6Oc-45" value="" style="sketch=0;pointerEvents=1;shadow=0;dashed=0;html=1;strokeColor=none;fillColor=#434445;aspect=fixed;labelPosition=center;verticalLabelPosition=bottom;verticalAlign=top;align=center;outlineConnect=0;shape=mxgraph.vvd.wi_fi;" parent="X9g1w7YATRWXdbqCT6Oc-44" vertex="1">
          <mxGeometry x="5" width="20" height="20" as="geometry" />
        </mxCell>
        <mxCell id="X9g1w7YATRWXdbqCT6Oc-46" value="&lt;font style=&quot;font-size: 8px;&quot;&gt;MQTT&lt;/font&gt;" style="text;html=1;align=center;verticalAlign=middle;whiteSpace=wrap;rounded=0;" parent="X9g1w7YATRWXdbqCT6Oc-44" vertex="1">
          <mxGeometry y="20" width="30" height="10" as="geometry" />
        </mxCell>
        <mxCell id="X9g1w7YATRWXdbqCT6Oc-47" value="" style="group" parent="1" vertex="1" connectable="0">
          <mxGeometry x="520" y="1090" width="30" height="30" as="geometry" />
        </mxCell>
        <mxCell id="X9g1w7YATRWXdbqCT6Oc-48" value="" style="sketch=0;pointerEvents=1;shadow=0;dashed=0;html=1;strokeColor=none;fillColor=#434445;aspect=fixed;labelPosition=center;verticalLabelPosition=bottom;verticalAlign=top;align=center;outlineConnect=0;shape=mxgraph.vvd.wi_fi;" parent="X9g1w7YATRWXdbqCT6Oc-47" vertex="1">
          <mxGeometry x="5" width="20" height="20" as="geometry" />
        </mxCell>
        <mxCell id="X9g1w7YATRWXdbqCT6Oc-49" value="&lt;font style=&quot;font-size: 8px;&quot;&gt;MQTT&lt;/font&gt;" style="text;html=1;align=center;verticalAlign=middle;whiteSpace=wrap;rounded=0;" parent="X9g1w7YATRWXdbqCT6Oc-47" vertex="1">
          <mxGeometry y="20" width="30" height="10" as="geometry" />
        </mxCell>
        <mxCell id="X9g1w7YATRWXdbqCT6Oc-50" value="" style="group" parent="1" vertex="1" connectable="0">
          <mxGeometry x="560" y="890" width="30" height="30" as="geometry" />
        </mxCell>
        <mxCell id="X9g1w7YATRWXdbqCT6Oc-51" value="" style="sketch=0;pointerEvents=1;shadow=0;dashed=0;html=1;strokeColor=none;fillColor=#434445;aspect=fixed;labelPosition=center;verticalLabelPosition=bottom;verticalAlign=top;align=center;outlineConnect=0;shape=mxgraph.vvd.wi_fi;" parent="X9g1w7YATRWXdbqCT6Oc-50" vertex="1">
          <mxGeometry x="5" width="20" height="20" as="geometry" />
        </mxCell>
        <mxCell id="X9g1w7YATRWXdbqCT6Oc-52" value="&lt;font style=&quot;font-size: 8px;&quot;&gt;MQTT&lt;/font&gt;" style="text;html=1;align=center;verticalAlign=middle;whiteSpace=wrap;rounded=0;" parent="X9g1w7YATRWXdbqCT6Oc-50" vertex="1">
          <mxGeometry y="20" width="30" height="10" as="geometry" />
        </mxCell>
        <mxCell id="X9g1w7YATRWXdbqCT6Oc-53" value="" style="ellipse;whiteSpace=wrap;html=1;fillColor=#d5e8d4;strokeColor=#82b366;movable=0;resizable=0;rotatable=0;deletable=0;editable=0;locked=1;connectable=0;" parent="1" vertex="1">
          <mxGeometry x="790" y="370" width="210" height="170" as="geometry" />
        </mxCell>
        <mxCell id="X9g1w7YATRWXdbqCT6Oc-54" value="Atelier Texte" style="text;html=1;align=center;verticalAlign=middle;whiteSpace=wrap;rounded=0;" parent="1" vertex="1">
          <mxGeometry x="855" y="390" width="90" height="30" as="geometry" />
        </mxCell>
        <mxCell id="X9g1w7YATRWXdbqCT6Oc-56" value="PC + Ecran" style="rounded=0;whiteSpace=wrap;html=1;" parent="1" vertex="1">
          <mxGeometry x="860" y="445" width="70" height="30" as="geometry" />
        </mxCell>
        <mxCell id="X9g1w7YATRWXdbqCT6Oc-61" value="" style="group" parent="1" vertex="1" connectable="0">
          <mxGeometry x="930" y="445" width="30" height="30" as="geometry" />
        </mxCell>
        <mxCell id="X9g1w7YATRWXdbqCT6Oc-62" value="" style="sketch=0;pointerEvents=1;shadow=0;dashed=0;html=1;strokeColor=none;fillColor=#434445;aspect=fixed;labelPosition=center;verticalLabelPosition=bottom;verticalAlign=top;align=center;outlineConnect=0;shape=mxgraph.vvd.wi_fi;" parent="X9g1w7YATRWXdbqCT6Oc-61" vertex="1">
          <mxGeometry x="5" width="20" height="20" as="geometry" />
        </mxCell>
        <mxCell id="X9g1w7YATRWXdbqCT6Oc-63" value="&lt;font style=&quot;font-size: 8px;&quot;&gt;MQTT&lt;/font&gt;" style="text;html=1;align=center;verticalAlign=middle;whiteSpace=wrap;rounded=0;" parent="X9g1w7YATRWXdbqCT6Oc-61" vertex="1">
          <mxGeometry y="20" width="30" height="10" as="geometry" />
        </mxCell>
        <mxCell id="X9g1w7YATRWXdbqCT6Oc-64" value="" style="ellipse;whiteSpace=wrap;html=1;fillColor=#fad9d5;strokeColor=#ae4132;" parent="1" vertex="1">
          <mxGeometry x="1050" y="370" width="210" height="190" as="geometry" />
        </mxCell>
        <mxCell id="X9g1w7YATRWXdbqCT6Oc-65" value="Atelier vocal" style="text;html=1;align=center;verticalAlign=middle;whiteSpace=wrap;rounded=0;" parent="1" vertex="1">
          <mxGeometry x="1110" y="390" width="90" height="30" as="geometry" />
        </mxCell>
        <mxCell id="X9g1w7YATRWXdbqCT6Oc-68" style="edgeStyle=orthogonalEdgeStyle;rounded=0;orthogonalLoop=1;jettySize=auto;html=1;entryX=0.5;entryY=0;entryDx=0;entryDy=0;" parent="1" source="X9g1w7YATRWXdbqCT6Oc-66" target="X9g1w7YATRWXdbqCT6Oc-67" edge="1">
          <mxGeometry relative="1" as="geometry" />
        </mxCell>
        <mxCell id="X9g1w7YATRWXdbqCT6Oc-66" value="Micro" style="rounded=0;whiteSpace=wrap;html=1;" parent="1" vertex="1">
          <mxGeometry x="1120" y="420" width="70" height="30" as="geometry" />
        </mxCell>
        <mxCell id="X9g1w7YATRWXdbqCT6Oc-67" value="PC + Ecran" style="rounded=0;whiteSpace=wrap;html=1;" parent="1" vertex="1">
          <mxGeometry x="1120" y="470" width="70" height="30" as="geometry" />
        </mxCell>
        <mxCell id="X9g1w7YATRWXdbqCT6Oc-69" value="" style="group" parent="1" vertex="1" connectable="0">
          <mxGeometry x="1190" y="470" width="30" height="30" as="geometry" />
        </mxCell>
        <mxCell id="X9g1w7YATRWXdbqCT6Oc-70" value="" style="sketch=0;pointerEvents=1;shadow=0;dashed=0;html=1;strokeColor=none;fillColor=#434445;aspect=fixed;labelPosition=center;verticalLabelPosition=bottom;verticalAlign=top;align=center;outlineConnect=0;shape=mxgraph.vvd.wi_fi;" parent="X9g1w7YATRWXdbqCT6Oc-69" vertex="1">
          <mxGeometry x="5" width="20" height="20" as="geometry" />
        </mxCell>
        <mxCell id="X9g1w7YATRWXdbqCT6Oc-71" value="&lt;font style=&quot;font-size: 8px;&quot;&gt;MQTT&lt;/font&gt;" style="text;html=1;align=center;verticalAlign=middle;whiteSpace=wrap;rounded=0;" parent="X9g1w7YATRWXdbqCT6Oc-69" vertex="1">
          <mxGeometry y="20" width="30" height="10" as="geometry" />
        </mxCell>
        <mxCell id="X9g1w7YATRWXdbqCT6Oc-72" value="" style="ellipse;whiteSpace=wrap;html=1;fillColor=#b0e3e6;strokeColor=#0e8088;" parent="1" vertex="1">
          <mxGeometry x="920" y="530" width="210" height="170" as="geometry" />
        </mxCell>
        <mxCell id="X9g1w7YATRWXdbqCT6Oc-73" value="Atelier labyrinte" style="text;html=1;align=center;verticalAlign=middle;whiteSpace=wrap;rounded=0;" parent="1" vertex="1">
          <mxGeometry x="980" y="550" width="90" height="30" as="geometry" />
        </mxCell>
        <mxCell id="X9g1w7YATRWXdbqCT6Oc-74" style="edgeStyle=orthogonalEdgeStyle;rounded=0;orthogonalLoop=1;jettySize=auto;html=1;entryX=0.5;entryY=0;entryDx=0;entryDy=0;" parent="1" source="X9g1w7YATRWXdbqCT6Oc-75" target="X9g1w7YATRWXdbqCT6Oc-76" edge="1">
          <mxGeometry relative="1" as="geometry" />
        </mxCell>
        <mxCell id="X9g1w7YATRWXdbqCT6Oc-75" value="Digicode" style="rounded=0;whiteSpace=wrap;html=1;" parent="1" vertex="1">
          <mxGeometry x="990" y="580" width="70" height="30" as="geometry" />
        </mxCell>
        <mxCell id="X9g1w7YATRWXdbqCT6Oc-76" value="ESP32 LCD" style="rounded=0;whiteSpace=wrap;html=1;" parent="1" vertex="1">
          <mxGeometry x="990" y="630" width="70" height="30" as="geometry" />
        </mxCell>
        <mxCell id="X9g1w7YATRWXdbqCT6Oc-77" value="" style="group" parent="1" vertex="1" connectable="0">
          <mxGeometry x="1060" y="630" width="30" height="30" as="geometry" />
        </mxCell>
        <mxCell id="X9g1w7YATRWXdbqCT6Oc-78" value="" style="sketch=0;pointerEvents=1;shadow=0;dashed=0;html=1;strokeColor=none;fillColor=#434445;aspect=fixed;labelPosition=center;verticalLabelPosition=bottom;verticalAlign=top;align=center;outlineConnect=0;shape=mxgraph.vvd.wi_fi;" parent="X9g1w7YATRWXdbqCT6Oc-77" vertex="1">
          <mxGeometry x="5" width="20" height="20" as="geometry" />
        </mxCell>
        <mxCell id="X9g1w7YATRWXdbqCT6Oc-79" value="&lt;font style=&quot;font-size: 8px;&quot;&gt;MQTT&lt;/font&gt;" style="text;html=1;align=center;verticalAlign=middle;whiteSpace=wrap;rounded=0;" parent="X9g1w7YATRWXdbqCT6Oc-77" vertex="1">
          <mxGeometry y="20" width="30" height="10" as="geometry" />
        </mxCell>
        <mxCell id="X9g1w7YATRWXdbqCT6Oc-81" value="Lot IA" style="text;html=1;align=center;verticalAlign=middle;whiteSpace=wrap;rounded=0;" parent="1" vertex="1">
          <mxGeometry x="985" y="305" width="80" height="30" as="geometry" />
        </mxCell>
        <mxCell id="X9g1w7YATRWXdbqCT6Oc-82" value="" style="shape=hexagon;perimeter=hexagonPerimeter2;whiteSpace=wrap;html=1;fixedSize=1;" parent="1" vertex="1">
          <mxGeometry x="-595" y="525" width="90" height="45" as="geometry" />
        </mxCell>
        <mxCell id="X9g1w7YATRWXdbqCT6Oc-83" value="Lots" style="text;html=1;align=center;verticalAlign=middle;whiteSpace=wrap;rounded=0;" parent="1" vertex="1">
          <mxGeometry x="-480" y="535" width="60" height="25" as="geometry" />
        </mxCell>
        <mxCell id="X9g1w7YATRWXdbqCT6Oc-88" value="" style="group" parent="1" vertex="1" connectable="0">
          <mxGeometry x="-180" y="1080" width="30" height="30" as="geometry" />
        </mxCell>
        <mxCell id="X9g1w7YATRWXdbqCT6Oc-89" value="" style="sketch=0;pointerEvents=1;shadow=0;dashed=0;html=1;strokeColor=none;fillColor=#434445;aspect=fixed;labelPosition=center;verticalLabelPosition=bottom;verticalAlign=top;align=center;outlineConnect=0;shape=mxgraph.vvd.wi_fi;" parent="X9g1w7YATRWXdbqCT6Oc-88" vertex="1">
          <mxGeometry x="5" width="20" height="20" as="geometry" />
        </mxCell>
        <mxCell id="X9g1w7YATRWXdbqCT6Oc-90" value="&lt;font style=&quot;font-size: 8px;&quot;&gt;MQTT&lt;/font&gt;" style="text;html=1;align=center;verticalAlign=middle;whiteSpace=wrap;rounded=0;" parent="X9g1w7YATRWXdbqCT6Oc-88" vertex="1">
          <mxGeometry y="20" width="30" height="10" as="geometry" />
        </mxCell>
        <mxCell id="X9g1w7YATRWXdbqCT6Oc-91" value="Script game_master.py" style="rounded=1;whiteSpace=wrap;html=1;" parent="1" vertex="1">
          <mxGeometry x="190" y="380" width="120" height="60" as="geometry" />
        </mxCell>
        <mxCell id="N1eh8rhruJ90CBT_FyyH-1" value="TTGO-Camera" style="rounded=0;whiteSpace=wrap;html=1;" vertex="1" parent="1">
          <mxGeometry x="180" y="840" width="70" height="31.67" as="geometry" />
        </mxCell>
        <mxCell id="N1eh8rhruJ90CBT_FyyH-3" value="" style="sketch=0;pointerEvents=1;shadow=0;dashed=0;html=1;strokeColor=none;fillColor=#434445;aspect=fixed;labelPosition=center;verticalLabelPosition=bottom;verticalAlign=top;align=center;outlineConnect=0;shape=mxgraph.vvd.wi_fi;container=0;rotation=90;" vertex="1" parent="1">
          <mxGeometry x="242.67000000000002" y="872.6700000000001" width="17.333333333333336" height="17.333333333333336" as="geometry" />
        </mxCell>
        <mxCell id="N1eh8rhruJ90CBT_FyyH-6" value="TTGO-Camera" style="rounded=0;whiteSpace=wrap;html=1;" vertex="1" parent="1">
          <mxGeometry x="325" y="840" width="70" height="31.17" as="geometry" />
        </mxCell>
        <mxCell id="N1eh8rhruJ90CBT_FyyH-7" value="" style="sketch=0;pointerEvents=1;shadow=0;dashed=0;html=1;strokeColor=none;fillColor=#434445;aspect=fixed;labelPosition=center;verticalLabelPosition=bottom;verticalAlign=top;align=center;outlineConnect=0;shape=mxgraph.vvd.wi_fi;container=0;rotation=-180;" vertex="1" parent="1">
          <mxGeometry x="315.00000000000006" y="875" width="17.333333333333336" height="17.333333333333336" as="geometry" />
        </mxCell>
        <mxCell id="N1eh8rhruJ90CBT_FyyH-8" value="&lt;font&gt;MJPEG sur HTTP&lt;/font&gt;" style="text;html=1;align=center;verticalAlign=middle;whiteSpace=wrap;rounded=0;" vertex="1" parent="1">
          <mxGeometry x="255" y="842.17" width="60" height="30" as="geometry" />
        </mxCell>
        <mxCell id="N1eh8rhruJ90CBT_FyyH-9" value="" style="rounded=0;whiteSpace=wrap;html=1;" vertex="1" parent="1">
          <mxGeometry x="250" y="892.33" width="70" height="67.67" as="geometry" />
        </mxCell>
        <mxCell id="N1eh8rhruJ90CBT_FyyH-10" value="PC" style="text;html=1;align=center;verticalAlign=middle;whiteSpace=wrap;rounded=0;" vertex="1" parent="1">
          <mxGeometry x="255" y="892.33" width="60" height="30" as="geometry" />
        </mxCell>
        <mxCell id="N1eh8rhruJ90CBT_FyyH-11" value="&lt;font style=&quot;font-size: 6px;&quot;&gt;camera_handler.py&lt;/font&gt;" style="rounded=1;whiteSpace=wrap;html=1;" vertex="1" parent="1">
          <mxGeometry x="255" y="922.33" width="60" height="30" as="geometry" />
        </mxCell>
        <mxCell id="N1eh8rhruJ90CBT_FyyH-14" value="LLM" style="ellipse;shape=cloud;whiteSpace=wrap;html=1;" vertex="1" parent="1">
          <mxGeometry x="827" y="485" width="60" height="40" as="geometry" />
        </mxCell>
        <mxCell id="N1eh8rhruJ90CBT_FyyH-15" value="TTS" style="ellipse;shape=cloud;whiteSpace=wrap;html=1;" vertex="1" parent="1">
          <mxGeometry x="900" y="485" width="60" height="40" as="geometry" />
        </mxCell>
        <mxCell id="N1eh8rhruJ90CBT_FyyH-16" value="" style="endArrow=none;dashed=1;html=1;rounded=0;entryX=0.25;entryY=1;entryDx=0;entryDy=0;exitX=0.625;exitY=0.2;exitDx=0;exitDy=0;exitPerimeter=0;" edge="1" parent="1" source="N1eh8rhruJ90CBT_FyyH-14" target="X9g1w7YATRWXdbqCT6Oc-56">
          <mxGeometry width="50" height="50" relative="1" as="geometry">
            <mxPoint x="810" y="530" as="sourcePoint" />
            <mxPoint x="860" y="480" as="targetPoint" />
          </mxGeometry>
        </mxCell>
        <mxCell id="N1eh8rhruJ90CBT_FyyH-17" value="" style="endArrow=none;dashed=1;html=1;rounded=0;entryX=0.75;entryY=1;entryDx=0;entryDy=0;" edge="1" parent="1" source="N1eh8rhruJ90CBT_FyyH-15" target="X9g1w7YATRWXdbqCT6Oc-56">
          <mxGeometry width="50" height="50" relative="1" as="geometry">
            <mxPoint x="875" y="503" as="sourcePoint" />
            <mxPoint x="888" y="485" as="targetPoint" />
          </mxGeometry>
        </mxCell>
        <mxCell id="N1eh8rhruJ90CBT_FyyH-19" value="LLM" style="ellipse;shape=cloud;whiteSpace=wrap;html=1;" vertex="1" parent="1">
          <mxGeometry x="1087" y="510" width="60" height="40" as="geometry" />
        </mxCell>
        <mxCell id="N1eh8rhruJ90CBT_FyyH-20" value="STT" style="ellipse;shape=cloud;whiteSpace=wrap;html=1;" vertex="1" parent="1">
          <mxGeometry x="1160" y="510" width="60" height="40" as="geometry" />
        </mxCell>
        <mxCell id="N1eh8rhruJ90CBT_FyyH-21" value="" style="endArrow=none;dashed=1;html=1;rounded=0;entryX=0.25;entryY=1;entryDx=0;entryDy=0;exitX=0.625;exitY=0.2;exitDx=0;exitDy=0;exitPerimeter=0;" edge="1" parent="1" source="N1eh8rhruJ90CBT_FyyH-19">
          <mxGeometry width="50" height="50" relative="1" as="geometry">
            <mxPoint x="1070" y="555" as="sourcePoint" />
            <mxPoint x="1138" y="500" as="targetPoint" />
          </mxGeometry>
        </mxCell>
        <mxCell id="N1eh8rhruJ90CBT_FyyH-22" value="" style="endArrow=none;dashed=1;html=1;rounded=0;entryX=0.75;entryY=1;entryDx=0;entryDy=0;" edge="1" parent="1" source="N1eh8rhruJ90CBT_FyyH-20">
          <mxGeometry width="50" height="50" relative="1" as="geometry">
            <mxPoint x="1135" y="528" as="sourcePoint" />
            <mxPoint x="1173" y="500" as="targetPoint" />
          </mxGeometry>
        </mxCell>
      </root>
    </mxGraphModel>
  </diagram>
</mxfile>
